<svg xmlns="http://www.w3.org/2000/svg" xmlns:xlink="http://www.w3.org/1999/xlink" version="1.1" x="0px" y="0px" viewBox="0 0 512 640" style="enable-background:new 0 0 512 512;" xml:space="preserve"><rect x="400" y="128" width="32" height="48"/><path d="M87,365.7l17.9-17.9c4.5-4.5,7-10.6,7-17v-23.4L101.7,297c-7.5-7.5-7.5-19.8,0-27.3c2.8-2.8,6.4-4.7,10.4-5.4V216H32v256  c0,4.4,3.6,8,8,8h41.4c-0.9-2.6-1.4-5.3-1.4-8v-89.4C80,376.3,82.5,370.1,87,365.7z"/><path d="M171.7,359c-7.5-7.5-11.7-17.7-11.7-28.3V312h-32v18.7c0,10.6-4.2,20.8-11.7,28.3L98.3,377c-1.5,1.5-2.3,3.5-2.3,5.7V472  c0,4.4,3.6,8,8,8h80c4.4,0,8-3.6,8-8v-89.4c0-2.1-0.8-4.2-2.3-5.7L171.7,359z M176,464h-64v-16h64V464z M144,432  c-17.7,0-32-14.3-32-32s14.3-32,32-32s32,14.3,32,32C176,417.7,161.7,432,144,432z"/><path d="M261.7,263l88-88c1.5-1.5,2.3-3.5,2.3-5.7v-46.1l65-65L405.7,47l-65,65h-46.1c-2.1,0-4.2,0.8-5.7,2.3l-88,88  c-3.1,3.1-3.1,8.2,0,11.3l49.4,49.4C253.5,266.1,258.5,266.1,261.7,263z M222.3,206.3l41.7-41.7l16,16l20.7-20.7H288v-16h40v40h-16  v-12.7l-32,32l-16-16l-30.3,30.3L222.3,206.3z"/><polygon points="131.1,168 52.9,168 36.9,200 115.1,200 "/><circle cx="144" cy="400" r="16"/><rect x="336" y="320" width="32" height="48"/><rect x="128" y="216" width="32" height="48"/><path d="M136,136c0-4.4-3.6-8-8-8H64c-4.4,0-8,3.6-8,8v16h80V136z"/><polygon points="155.1,200 144,177.9 132.9,200 "/><path d="M112,283.3c0,0.9,0.3,1.7,1,2.3l10.3,10.3h41.4l10.3-10.3c1.3-1.3,1.3-3.4,0-4.7c-0.6-0.6-1.5-1-2.3-1h-57.4  C113.5,280,112,281.5,112,283.3z"/><path d="M472,320h-88v64h-64v-64h-40v33.4c0,2.1,0.8,4.2,2.3,5.7l14.6,14.6c4.5,4.5,7,10.6,7,17V472c0,2.7-0.5,5.4-1.4,8h29.6  c-17.7-19.7-16-50,3.7-67.7c8.8-7.9,20.2-12.3,32.1-12.3h32c26.5,0,48,21.4,48,47.9c0,11.8-4.4,23.3-12.3,32.1H472c4.4,0,8-3.6,8-8  V328C480,323.6,476.4,320,472,320z"/><path d="M271,370.3c-4.5-4.5-7-10.6-7-17V336h-32v17.4c0,6.4-2.5,12.5-7,17L210.3,385c-1.5,1.5-2.3,3.5-2.3,5.7V472c0,4.4,3.6,8,8,8  h64c4.4,0,8-3.6,8-8v-81.4c0-2.1-0.8-4.2-2.3-5.7L271,370.3z M232,384h32v16h-32V384z M248,464c-13.3,0-24-10.7-24-24s10.7-24,24-24  c13.3,0,24,10.7,24,24C272,453.2,261.2,464,248,464z"/><path d="M337,440h15.7c1.5-8.8,5.4-17,11.4-23.7C351,417.9,340.3,427.3,337,440z"/><circle cx="400" cy="448" r="32"/><circle cx="248" cy="440" r="8"/><path d="M337,456c3.3,12.7,14,22.1,27,23.7c-5.9-6.7-9.9-14.9-11.4-23.7H337z"/><path d="M464,296V136c0-4.4-3.6-8-8-8h-8v64h-64v-64h-16v41.4c0,6.4-2.5,12.5-7,17l-41,41V296c0,4.4,3.6,8,8,8h128  C460.4,304,464,300.4,464,296z"/><path d="M232,304c-4.4,0-8,3.6-8,8v8h48v-8c0-4.4-3.6-8-8-8H232z"/><polygon points="240,80 256,80 256,56 280,56 280,40 256,40 256,16 240,16 240,40 216,40 216,56 240,56 "/><polygon points="104,88 120,88 120,72 136,72 136,56 120,56 120,40 104,40 104,56 88,56 88,72 104,72 "/><polygon points="472,40 472,16 456,16 456,40 432,40 432,56 456,56 456,80 472,80 472,56 496,56 496,40 "/><text x="0" y="527" fill="#000000" font-size="5px" font-weight="bold" font-family="'Helvetica Neue', Helvetica, Arial-Unicode, Arial, Sans-serif">Created by WiStudio</text><text x="0" y="532" fill="#000000" font-size="5px" font-weight="bold" font-family="'Helvetica Neue', Helvetica, Arial-Unicode, Arial, Sans-serif">from the Noun Project</text></svg>